<svg width="28" height="28" viewBox="0 0 28 28" fill="none" xmlns="http://www.w3.org/2000/svg">
<g clip-path="url(#clip0_428_17494)">
<path fill-rule="evenodd" clip-rule="evenodd" d="M9.6752 14.8248C9.45649 14.606 9.33362 14.3093 9.33362 14C9.33362 13.6906 9.45649 13.3939 9.6752 13.1751L16.275 6.57529C16.3827 6.46386 16.5114 6.37498 16.6537 6.31383C16.7961 6.25269 16.9492 6.22051 17.1041 6.21916C17.259 6.21781 17.4126 6.24733 17.556 6.30599C17.6994 6.36466 17.8296 6.45128 17.9392 6.56083C18.0487 6.67037 18.1353 6.80063 18.194 6.94401C18.2527 7.08739 18.2822 7.24101 18.2808 7.39592C18.2795 7.55083 18.2473 7.70392 18.1862 7.84626C18.125 7.9886 18.0361 8.11733 17.9247 8.22495L12.1497 14L17.9247 19.775C18.1372 19.995 18.2548 20.2897 18.2522 20.5956C18.2495 20.9015 18.1268 21.1941 17.9105 21.4104C17.6942 21.6267 17.4016 21.7494 17.0957 21.7521C16.7898 21.7547 16.4951 21.6371 16.275 21.4246L9.6752 14.8248Z" fill="black"/>
</g>
<defs>
<clipPath id="clip0_428_17494">
<rect width="28" height="28" fill="white"/>
</clipPath>
</defs>
</svg>
