<svg width="20" height="20" viewBox="0 0 20 20" fill="none" xmlns="http://www.w3.org/2000/svg">
<g clip-path="url(#clip0_428_17505)">
<path d="M10 1.66663C14.6025 1.66663 18.3334 5.39746 18.3334 9.99996C18.3334 14.6025 14.6025 18.3333 10 18.3333C5.39752 18.3333 1.66669 14.6025 1.66669 9.99996C1.66669 5.39746 5.39752 1.66663 10 1.66663ZM8.23252 7.05329C8.0829 6.90225 7.88121 6.8141 7.66873 6.80689C7.45625 6.79968 7.24905 6.87396 7.08954 7.01451C6.93003 7.15507 6.83027 7.35128 6.81068 7.56298C6.7911 7.77468 6.85317 7.98586 6.98419 8.15329L7.05419 8.23246L8.82085 9.99913L7.05419 11.7675C6.90314 11.9171 6.81499 12.1188 6.80778 12.3312C6.80058 12.5437 6.87485 12.7509 7.01541 12.9104C7.15597 13.07 7.35217 13.1697 7.56387 13.1893C7.77557 13.2089 7.98675 13.1468 8.15419 13.0158L8.23252 12.9466L10 11.1783L11.7675 12.9466C11.9171 13.0977 12.1188 13.1858 12.3313 13.193C12.5438 13.2002 12.751 13.126 12.9105 12.9854C13.07 12.8448 13.1698 12.6486 13.1894 12.4369C13.2089 12.2252 13.1469 12.0141 13.0159 11.8466L12.9467 11.7675L11.1784 9.99996L12.9467 8.23246C13.0977 8.08284 13.1859 7.88115 13.1931 7.66867C13.2003 7.45619 13.126 7.24899 12.9855 7.08948C12.8449 6.92996 12.6487 6.83021 12.437 6.81062C12.2253 6.79104 12.0141 6.85311 11.8467 6.98413L11.7675 7.05329L10 8.82163L8.23252 7.05329Z" fill="#D5D5D5"/>
</g>
<defs>
<clipPath id="clip0_428_17505">
<rect width="20" height="20" fill="white"/>
</clipPath>
</defs>
</svg>
