<svg width="21" height="20" viewBox="0 0 21 20" fill="none" xmlns="http://www.w3.org/2000/svg">
<path fill-rule="evenodd" clip-rule="evenodd" d="M6.60835 1.66666H14.3834C17.2167 1.66666 18.8334 3.26666 18.8334 6.10833V13.8917C18.8334 16.7167 17.225 18.3333 14.3917 18.3333H6.60835C3.76669 18.3333 2.16669 16.7167 2.16669 13.8917V6.10833C2.16669 3.26666 3.76669 1.66666 6.60835 1.66666ZM11.1835 10.6916H13.5502C13.9335 10.6833 14.2419 10.3749 14.2419 9.99159C14.2419 9.60826 13.9335 9.29992 13.5502 9.29992H11.1835V6.94992C11.1835 6.56659 10.8752 6.25826 10.4918 6.25826C10.1085 6.25826 9.80018 6.56659 9.80018 6.94992V9.29992H7.44185C7.25852 9.29992 7.08352 9.37492 6.95018 9.49992C6.82518 9.63326 6.75018 9.80742 6.75018 9.99159C6.75018 10.3749 7.05852 10.6833 7.44185 10.6916H9.80018V13.0499C9.80018 13.4333 10.1085 13.7416 10.4918 13.7416C10.8752 13.7416 11.1835 13.4333 11.1835 13.0499V10.6916Z" fill="white"/>
</svg>
