<svg width="16" height="16" viewBox="0 0 16 16" fill="none" xmlns="http://www.w3.org/2000/svg">
<path fill-rule="evenodd" clip-rule="evenodd" d="M13.5247 3.49535C13.7841 3.49535 14 3.71068 14 3.98468V4.23801C14 4.50534 13.7841 4.72734 13.5247 4.72734H2.4759C2.21591 4.72734 2 4.50534 2 4.23801V3.98468C2 3.71068 2.21591 3.49535 2.4759 3.49535H4.41971C4.81457 3.49535 5.1582 3.21469 5.24703 2.81869L5.34882 2.36403C5.50702 1.7447 6.02766 1.33337 6.62351 1.33337H9.37649C9.96585 1.33337 10.4923 1.7447 10.6447 2.33136L10.7536 2.81803C10.8418 3.21469 11.1854 3.49535 11.5809 3.49535H13.5247ZM12.5372 12.7561C12.7402 10.8648 13.0955 6.37148 13.0955 6.32615C13.1084 6.18882 13.0637 6.05882 12.9749 5.95415C12.8796 5.85616 12.759 5.79816 12.6261 5.79816H3.37903C3.24547 5.79816 3.11839 5.85616 3.03021 5.95415C2.94074 6.05882 2.89665 6.18882 2.90313 6.32615C2.90432 6.33448 2.91707 6.49276 2.93839 6.75737C3.03308 7.93287 3.2968 11.2069 3.46721 12.7561C3.58781 13.8974 4.33667 14.6147 5.42139 14.6407C6.25844 14.6601 7.12077 14.6667 8.00255 14.6667C8.83311 14.6667 9.67664 14.6601 10.5396 14.6407C11.6619 14.6214 12.4102 13.9167 12.5372 12.7561Z" fill="#130F26"/>
</svg>
