<svg width="21" height="20" viewBox="0 0 21 20" fill="none" xmlns="http://www.w3.org/2000/svg">
<path fill-rule="evenodd" clip-rule="evenodd" d="M6.60841 1.66663H14.3834C17.2167 1.66663 18.8334 3.26663 18.8334 6.10829V13.8916C18.8334 16.7166 17.2251 18.3333 14.3917 18.3333H6.60841C3.76675 18.3333 2.16675 16.7166 2.16675 13.8916V6.10829C2.16675 3.26663 3.76675 1.66663 6.60841 1.66663ZM11.1836 10.6916H13.5502C13.9336 10.6832 14.2419 10.3749 14.2419 9.99155C14.2419 9.60822 13.9336 9.29989 13.5502 9.29989H11.1836V6.94989C11.1836 6.56655 10.8752 6.25822 10.4919 6.25822C10.1086 6.25822 9.80024 6.56655 9.80024 6.94989V9.29989H7.44191C7.25858 9.29989 7.08358 9.37489 6.95024 9.49989C6.82524 9.63322 6.75024 9.80739 6.75024 9.99155C6.75024 10.3749 7.05858 10.6832 7.44191 10.6916H9.80024V13.0499C9.80024 13.4332 10.1086 13.7416 10.4919 13.7416C10.8752 13.7416 11.1836 13.4332 11.1836 13.0499V10.6916Z" fill="white"/>
</svg>
