<svg width="16" height="16" viewBox="0 0 16 16" fill="none" xmlns="http://www.w3.org/2000/svg">
<path fill-rule="evenodd" clip-rule="evenodd" d="M13.5247 3.49529C13.7841 3.49529 14 3.71062 14 3.98462V4.23795C14 4.50528 13.7841 4.72728 13.5247 4.72728H2.4759C2.21591 4.72728 2 4.50528 2 4.23795V3.98462C2 3.71062 2.21591 3.49529 2.4759 3.49529H4.41971C4.81457 3.49529 5.1582 3.21463 5.24703 2.81863L5.34882 2.36397C5.50702 1.74464 6.02766 1.33331 6.62351 1.33331H9.37649C9.96585 1.33331 10.4923 1.74464 10.6447 2.3313L10.7536 2.81796C10.8418 3.21463 11.1854 3.49529 11.5809 3.49529H13.5247ZM12.5371 12.756C12.74 10.8647 13.0953 6.37142 13.0953 6.32609C13.1083 6.18876 13.0635 6.05876 12.9747 5.95409C12.8794 5.8561 12.7588 5.7981 12.6259 5.7981H3.37887C3.24531 5.7981 3.11823 5.8561 3.03005 5.95409C2.94057 6.05876 2.89648 6.18876 2.90297 6.32609C2.90416 6.33442 2.91691 6.4927 2.93822 6.75731C3.03291 7.93281 3.29664 11.2068 3.46705 12.756C3.58765 13.8973 4.33651 14.6147 5.42123 14.6407C6.25827 14.66 7.1206 14.6667 8.00239 14.6667C8.83294 14.6667 9.67647 14.66 10.5395 14.6407C11.6618 14.6213 12.41 13.9167 12.5371 12.756Z" fill="#130F26"/>
</svg>
